<svg id="Layer_1" data-name="Layer 1" xmlns="http://www.w3.org/2000/svg" viewBox="0 0 213.52 213.52"><path d="M126.84,0A86.61,86.61,0,0,0,61.37,143.42L1.86,202.94a6.16,6.16,0,0,0,8.6,8.83l.12-.12L70.1,152.14A86.66,86.66,0,1,0,126.84,0Zm0,161a74.36,74.36,0,1,1,74.35-74.36A74.44,74.44,0,0,1,126.84,161Z"/><path d="M126.84,20.3V32.63a54.12,54.12,0,0,1,54,54.05h12.32A66.46,66.46,0,0,0,126.84,20.3Z"/><path d="M126.84,41.44V53.77a33,33,0,0,1,32.92,32.92h12.32A45.29,45.29,0,0,0,126.84,41.44Z"/><circle cx="126.84" cy="86.68" r="12.86"/></svg>