<?xml version="1.0" encoding="utf-8"?>
<!-- Generator: Adobe Illustrator 25.4.1, SVG Export Plug-In . SVG Version: 6.00 Build 0)  -->
<svg version="1.1" id="Layer_1" xmlns="http://www.w3.org/2000/svg" xmlns:xlink="http://www.w3.org/1999/xlink" x="0px" y="0px"
	 viewBox="0 0 800 800" style="enable-background:new 0 0 800 800;" xml:space="preserve">
<g>
	<path d="M704.5,95.6C643,34.1,561.1,0.2,474,0.2S305,34.1,243.5,95.6C181.9,157.2,148,239.1,148,326.2c0,76.5,26.2,149,74.3,207.3
		L9.2,746.6c-12.2,12.2-12.2,32,0,44.3c6.1,6.1,14.1,9.2,22.1,9.2s16-3.1,22.1-9.2l213.1-213.1c58.3,48.2,130.8,74.5,207.4,74.5
		c87.1,0,169-33.9,230.5-95.5c61.6-61.6,95.5-143.4,95.5-230.5C800,239.1,766.1,157.2,704.5,95.6z M474,589.6
		c-145.3,0-263.4-118.2-263.4-263.4c0-145.3,118.2-263.4,263.4-263.4c145.3,0,263.4,118.2,263.4,263.4
		C737.4,471.4,619.3,589.6,474,589.6z"/>
	<path d="M474,118.6V152c96.1,0,174.2,78.1,174.2,174.2h33.4C681.6,211.7,588.5,118.6,474,118.6z"/>
	<path d="M474,171.9v33.4c66.7,0,120.9,54.2,120.9,120.9h33.4C628.3,241.1,559.1,171.9,474,171.9z"/>
	<path d="M474,225.7v33.4c37,0,67.1,30.1,67.1,67.1h33.4C574.4,270.8,529.4,225.7,474,225.7z"/>
	<circle cx="474" cy="326.2" r="31.3"/>
</g>
</svg>
